<svg xmlns="http://www.w3.org/2000/svg" viewBox="-1 -3 26 44"><rect x="-1" y="-3" width="26" height="44" fill="#2b2b2b"/><path d="M 0.0 0.0 L 24.0 0.0 L 24.0 40.0 L 0.0 40.0 z" fill="none" stroke="rgb(119,119,119)" stroke-width="0.1"/><path d="M 0.0 -2.0 L 24.0 -2.0 L 24.0 0.0 L 0.0 0.0 z" fill="none" stroke="rgb(119,119,119)" stroke-width="0.1"/><path d="M 16.0 36.0 L 20.0 36.0 L 20.0 40.0 L 16.0 40.0 z" fill="none" stroke="rgb(255,255,255)" stroke-width="0.1"/><path d="M 0.0 36.0 L 4.0 36.0 L 4.0 40.0 L 0.0 40.0 z" fill="none" stroke="rgb(255,255,255)" stroke-width="0.1"/><text x="0" y="4.132722" font-size="1.2177901" font-family="'Open Sans', sans-serif" fill="rgb(255,255,255)"><tspan x="7.0" dy="1.2177901">16</tspan><tspan x="7.0" dy="1.7049062">Blocks sind gefallen</tspan></text><path d="M 9.0 32.0 L 14.0 32.0 L 14.0 37.0 L 9.0 37.0 z" fill="none" stroke="rgb(255,255,255)" stroke-width="0.1"/><path d="M 18.0 26.0 L 23.0 26.0 L 23.0 31.0 L 18.0 31.0 z" fill="none" stroke="rgb(255,255,255)" stroke-width="0.1"/><path d="M 1.0 29.0 L 6.0 29.0 L 6.0 34.0 L 1.0 34.0 z" fill="none" stroke="rgb(255,255,255)" stroke-width="0.1"/><path d="M 10.0 25.0 L 15.0 25.0 L 15.0 30.0 L 10.0 30.0 z" fill="none" stroke="rgb(255,255,255)" stroke-width="0.1"/><path d="M 16.0 17.0 L 21.0 17.0 L 21.0 22.0 L 16.0 22.0 z" fill="none" stroke="rgb(255,255,255)" stroke-width="0.1"/><path d="M 2.0 19.0 L 7.0 19.0 L 7.0 24.0 L 2.0 24.0 z" fill="none" stroke="rgb(255,255,255)" stroke-width="0.1"/><path d="M 8.0 16.0 L 13.0 16.0 L 13.0 21.0 L 8.0 21.0 z" fill="none" stroke="rgb(255,255,255)" stroke-width="0.1"/><path d="M 13.0 9.0 L 18.0 9.0 L 18.0 14.0 L 13.0 14.0 z" fill="none" stroke="rgb(255,255,255)" stroke-width="0.1"/><path d="M 3.0 8.0 L 8.0 8.0 L 8.0 13.0 L 3.0 13.0 z" fill="none" stroke="rgb(255,255,255)" stroke-width="0.1"/><path d="M 19.0 0.0 L 24.0 0.0 L 24.0 5.0 L 19.0 5.0 z" fill="none" stroke="rgb(255,255,255)" stroke-width="0.1"/><path d="M 1.0 0.0 L 6.0 0.0 L 6.0 5.0 L 1.0 5.0 z" fill="none" stroke="rgb(255,255,255)" stroke-width="0.1"/><path d="M 10.0 1.0 L 15.0 1.0 L 15.0 6.0 L 10.0 6.0 z" fill="none" stroke="rgb(255,255,255)" stroke-width="0.1"/><path d="M 20.0 6.0 L 23.0 6.0 L 23.0 9.0 L 20.0 9.0 z" fill="none" stroke="rgb(255,255,255)" stroke-width="0.1"/><path d="M 6.0 37.0 L 9.0 37.0 L 9.0 40.0 L 6.0 40.0 z" fill="none" stroke="rgb(255,255,255)" stroke-width="0.1"/><text x="8.267442" y="-0.5" font-size="1.5" font-family="'Open Sans', sans-serif" fill="rgb(255,255,255)">Spiel № 1</text><text x="2.3662791" y="3.75" font-size="3.75" font-family="'Open Sans', sans-serif" fill="rgb(255,255,255)">P</text><text x="4.133721" y="11.75" font-size="3.75" font-family="'Open Sans', sans-serif" fill="rgb(255,255,255)">U</text><text x="11.424418" y="4.75" font-size="3.75" font-family="'Open Sans', sans-serif" fill="rgb(255,255,255)">Z</text><text x="20.42442" y="3.75" font-size="3.75" font-family="'Open Sans', sans-serif" fill="rgb(255,255,255)">Z</text><text x="14.540698" y="12.75" font-size="3.75" font-family="'Open Sans', sans-serif" fill="rgb(255,255,255)">L</text><text x="17.453487" y="20.75" font-size="3.75" font-family="'Open Sans', sans-serif" fill="rgb(255,255,255)">E</text><text x="19.482557" y="29.75" font-size="3.75" font-family="'Open Sans', sans-serif" fill="rgb(255,255,255)">S</text><text x="3.4825583" y="22.75" font-size="3.75" font-family="'Open Sans', sans-serif" fill="rgb(255,255,255)">S</text><text x="2.0465117" y="32.75" font-size="3.75" font-family="'Open Sans', sans-serif" fill="rgb(255,255,255)">O</text><text x="10.046512" y="35.75" font-size="3.75" font-family="'Open Sans', sans-serif" fill="rgb(255,255,255)">O</text><text x="11.33721" y="28.75" font-size="3.75" font-family="'Open Sans', sans-serif" fill="rgb(255,255,255)">R</text><text x="9.33721" y="19.75" font-size="3.75" font-family="'Open Sans', sans-serif" fill="rgb(255,255,255)">C</text><text x="0.15116274" y="39.0" font-size="3.0" font-family="'Open Sans', sans-serif" fill="rgb(255,255,255)">M</text><text x="16.784883" y="39.75" font-size="3.75" font-family="'Open Sans', sans-serif" fill="rgb(255,255,255)">W</text><text x="6.8023257" y="39.25" font-size="2.25" font-family="'Open Sans', sans-serif" fill="rgb(255,255,255)">R</text><text x="20.680233" y="8.25" font-size="2.25" font-family="'Open Sans', sans-serif" fill="rgb(255,255,255)">D</text></svg>