<?xml version="1.0" encoding="utf-8"?>
<svg viewBox="135.084 610.38 369 107.35" xmlns="http://www.w3.org/2000/svg">
 
  <path d="M 456.971 708.049 C 456.409 708.079 455.972 707.299 456.315 706.83 C 456.909 706.986 457.502 707.111 458.127 707.267 C 457.909 707.705 457.439 708.016 456.971 707.985" fill="#000000" stroke="none"/>
  <path d="M 502.197 714.607 C 502.448 715.482 501.417 716.387 500.573 716.043 C 500.105 715.232 501.354 714.294 502.229 714.67" fill="#000000" stroke="none"/>
  <path d="M 463.531 644.987 C 464.28 644.706 465.03 645.424 465.529 646.05 C 464.748 646.58 463.5 645.892 463.531 644.956" fill="#000000" stroke="none"/>
  <path d="M 344.217 635.585 C 343.905 635.804 343.593 635.991 343.28 636.211 C 342.999 636.055 342.812 635.773 342.812 635.461 C 343.405 634.962 344.28 634.804 345.03 635.086 C 345.061 635.461 344.561 635.743 344.249 635.523" fill="#000000" stroke="none"/>
  <path d="M 458.22 715.263 C 458.502 715.169 458.783 715.232 459.001 715.388 C 459.001 715.7 459.001 715.981 458.97 716.294 C 458.158 716.793 456.971 716.575 456.409 715.794 C 456.909 715.357 457.565 715.138 458.22 715.232" fill="#000000" stroke="none"/>
  <path d="M 444.602 716.012 C 444.353 716.575 443.447 716.669 443.041 716.2 C 442.666 715.7 442.947 714.857 443.541 714.701 C 444.071 714.981 444.447 715.45 444.665 716.012" fill="#000000" stroke="none"/>
  <path d="M 439.106 716.169 C 438.98 716.669 438.419 717.043 437.887 716.981 C 437.357 716.919 436.888 716.45 436.856 715.919 C 437.638 715.888 438.419 716.012 439.137 716.263" fill="#000000" stroke="none"/>
  <path d="M 487.392 715.981 C 487.049 716.325 486.549 716.511 486.05 716.45 C 485.613 715.919 485.768 715.012 486.394 714.67 C 487.018 714.358 487.893 714.701 488.08 715.388 C 487.861 715.575 487.643 715.794 487.424 716.012" fill="#000000" stroke="none"/>
  <path d="M 434.483 705.392 C 435.108 705.456 435.732 705.487 436.388 705.549 C 436.514 706.206 435.826 706.892 435.139 706.799 C 434.452 706.674 434.077 705.768 434.421 705.175" fill="#000000" stroke="none"/>
  <path d="M 357.211 643.457 C 357.46 644.3 357.679 645.174 357.929 646.018 C 357.523 646.236 357.054 646.298 356.617 646.174 C 356.711 645.299 356.836 644.425 356.929 643.55" fill="#000000" stroke="none"/>
  <path d="M 472.276 714.919 C 472.9 714.919 473.557 715.2 473.994 715.669 C 473.368 716.575 471.901 716.699 471.151 715.919 C 471.339 715.42 471.745 715.012 472.276 714.888" fill="#000000" stroke="none"/>
  <path d="M 184.925 662.134 C 185.488 661.947 186.112 662.571 186.05 663.196 C 186.018 663.821 185.488 664.289 184.956 664.54 C 184.331 664.509 183.801 663.914 183.801 663.321 C 183.801 662.697 184.301 662.134 184.925 662.041" fill="#000000" stroke="none"/>
  <path d="M 496.263 652.889 C 497.169 653.295 497.669 654.357 497.387 655.294 C 496.638 654.763 496.014 654.045 495.577 653.233 C 495.733 652.983 496.014 652.795 496.326 652.764" fill="#000000" stroke="none"/>
  <path d="M 408.683 650.046 C 407.56 650.922 405.936 651.077 404.623 650.453 C 405.905 649.953 407.341 649.829 408.683 650.046" fill="#000000" stroke="none"/>
  <path d="M 187.456 714.014 C 188.205 713.42 189.236 713.233 190.172 713.482 C 189.766 714.857 187.736 715.42 186.706 714.388 C 186.956 714.263 187.205 714.138 187.424 714.014" fill="#000000" stroke="none"/>
  <path d="M 135.2 682.436 C 135.045 680.968 135.045 679.5 135.2 678.032 C 135.919 678.469 136.201 679.375 136.107 680.187 C 136.014 680.968 135.607 681.717 135.2 682.436" fill="#000000" stroke="none"/>
  <path d="M 444.634 638.553 C 444.103 638.24 443.572 637.928 443.072 637.616 C 443.51 637.334 444.165 637.523 444.384 637.991 C 445.165 637.71 446.164 638.178 446.445 638.958 C 445.821 638.958 445.196 638.803 444.665 638.521" fill="#000000" stroke="none"/>
  <path d="M 500.855 644.112 C 501.635 643.519 502.822 643.582 503.541 644.238 C 503.978 644.644 504.228 645.331 503.947 645.861 C 502.698 646.143 501.292 645.331 500.855 644.112" fill="#000000" stroke="none"/>
  <path d="M 494.171 714.67 C 495.076 714.482 496.326 714.513 496.544 715.388 C 495.326 716.606 493.078 716.511 491.985 715.2 C 492.546 714.67 493.39 714.482 494.14 714.638" fill="#000000" stroke="none"/>
  <path d="M 443.885 704.019 C 444.447 703.831 445.134 704.081 445.446 704.612 C 445.04 704.519 444.634 704.581 444.259 704.8 C 444.821 705.081 445.384 705.331 445.915 705.612 C 445.54 705.799 445.165 705.986 444.79 706.142 C 444.01 705.736 443.51 704.831 443.603 703.956" fill="#000000" stroke="none"/>
  <path d="M 415.212 640.271 C 416.43 639.958 417.647 639.646 418.898 639.334 C 418.835 639.958 418.46 640.552 417.929 640.865 C 417.647 640.083 416.305 640.083 416.055 640.865 C 415.774 640.676 415.493 640.489 415.212 640.271" fill="#000000" stroke="none"/>
  <path d="M 503.947 655.856 C 502.604 656.668 500.605 655.575 500.511 654.014 C 501.604 654.482 502.791 654.732 503.978 654.638 C 503.978 655.044 503.978 655.45 503.947 655.856" fill="#000000" stroke="none"/>
  <path d="M 463.405 716.387 C 462.937 716.075 463.124 715.232 463.624 714.95 C 464.092 714.638 464.717 714.701 465.311 714.764 C 465.997 714.857 466.685 714.919 467.372 715.012 C 467.747 715.762 466.747 716.511 465.904 716.48 C 465.061 716.48 464.218 716.106 463.405 716.387" fill="#000000" stroke="none"/>
  <path d="M 477.085 715.325 C 478.585 714.482 480.429 714.327 482.021 714.95 C 481.146 716.731 478.242 716.95 477.085 715.325" fill="#000000" stroke="none"/>
  <path d="M 448.32 715.388 C 449.475 715.045 450.662 714.888 451.88 714.857 C 452.536 714.857 453.442 715.107 453.442 715.762 C 452.473 716.637 451.068 716.95 449.819 716.637 C 449.163 716.45 448.507 716.043 448.32 715.388" fill="#000000" stroke="none"/>
  <path d="M 242.614 648.236 C 240.615 648.611 238.491 648.391 236.617 647.642 C 238.553 646.955 240.833 647.174 242.614 648.236" fill="#000000" stroke="none"/>
  <path d="M 153.692 709.328 C 154.629 707.954 155.972 706.83 157.502 706.206 C 157.627 707.299 157.658 708.36 157.596 709.453 C 156.409 710.141 154.815 710.078 153.692 709.328" fill="#000000" stroke="none"/>
  <path d="M 441.26 713.17 C 439.73 713.983 438.075 714.576 436.357 714.95 C 436.106 714.358 435.826 713.764 435.576 713.17 C 437.481 712.952 439.386 712.952 441.26 713.17" fill="#000000" stroke="none"/>
  <path d="M 136.513 683.124 C 136.888 684.873 137.138 686.622 137.232 688.433 C 136.513 686.778 135.794 685.154 135.108 683.498 C 135.576 683.498 136.076 683.342 136.513 683.124" fill="#000000" stroke="none"/>
  <path d="M 182.239 670.037 C 180.552 671.348 178.429 672.098 176.274 672.098 C 177.773 670.505 180.053 669.724 182.239 670.037" fill="#000000" stroke="none"/>
  <path d="M 227.591 623.779 C 230.058 622.686 233.213 623.404 234.962 625.466 C 232.463 626.371 229.434 625.684 227.591 623.779" fill="#000000" stroke="none"/>
  <path d="M 501.667 659.73 C 503.134 660.51 504.072 662.196 503.978 663.852 C 501.635 661.947 499.887 659.417 498.918 656.575 C 499.762 657.668 501.167 658.355 502.573 658.387 C 502.916 658.387 503.29 658.324 503.603 658.511 C 503.947 658.668 504.135 659.105 503.915 659.386 C 503.228 658.855 502.135 659.042 501.667 659.73" fill="#000000" stroke="none"/>
  <path d="M 186.987 657.262 C 187.955 656.949 188.892 658.011 188.986 659.042 C 189.11 660.042 188.673 661.04 188.548 662.072 C 188.329 663.478 188.642 664.914 188.611 666.352 C 188.579 667.788 188.048 669.381 186.768 670.037 C 187.018 668.412 187.267 666.757 187.517 665.133 C 187.642 664.352 187.736 663.509 187.486 662.728 C 187.236 661.979 186.486 661.322 185.675 661.447 C 187.267 660.885 187.955 658.636 186.987 657.262" fill="#000000" stroke="none"/>
  <path d="M 190.485 654.92 C 192.172 654.825 194.077 654.482 195.451 655.481 C 191.64 656.668 187.424 656.419 183.77 654.856 C 183.457 655.481 183.145 656.137 182.863 656.794 C 182.333 656.231 181.802 655.607 181.77 654.856 C 181.739 654.107 182.489 653.326 183.176 653.608 C 185.455 654.638 187.986 655.076 190.485 654.92" fill="#000000" stroke="none"/>
  <path d="M 197.887 649.547 C 194.514 649.641 191.172 649.797 187.799 650.046 C 185.238 650.234 182.364 650.64 180.771 652.639 C 180.802 651.14 181.989 649.86 183.395 649.297 C 184.77 648.735 186.3 648.735 187.799 648.735 C 191.11 648.704 194.421 648.704 197.731 648.704 C 197.887 648.953 197.95 649.266 197.887 649.547" fill="#000000" stroke="none"/>
  <path d="M 149.506 715.919 C 149.475 716.699 150.005 717.45 150.724 717.7 C 150.005 717.7 149.287 717.7 148.569 717.73 C 147.757 716.387 148.538 714.732 149.1 713.296 C 149.662 711.827 149.725 709.765 148.289 709.204 C 149.162 707.111 150.537 705.206 152.255 703.707 C 151.067 706.268 151.067 709.328 152.286 711.858 C 153.473 714.419 155.846 716.356 158.564 717.043 C 155.503 717.106 152.442 716.731 149.506 715.919" fill="#000000" stroke="none"/>
  <path d="M 236.149 647.454 C 225.498 648.048 214.847 647.829 204.228 647.58 C 202.916 647.549 201.604 647.517 200.417 647.017 C 204.915 646.268 209.538 646.455 214.129 646.611 C 221.469 646.892 228.809 647.174 236.149 647.454" fill="#000000" stroke="none"/>
  <path d="M 228.463 638.512 C 225.683 639.168 222.841 639.168 219.998 639.168 C 210.159 639.137 177.242 638.396 167.404 638.396 C 166.622 638.396 165.623 638.272 165.373 637.523 C 168.153 636.835 171.057 636.866 173.899 636.897 C 184.394 637.022 194.92 637.304 205.415 637.772" fill="#000000" stroke="none"/>
  <path d="M 247.424 637.554 C 256.575 637.49 265.758 637.397 274.91 637.334 C 283.562 637.273 292.245 637.21 300.834 638.053 C 284.53 638.209 268.226 638.396 251.922 638.584 C 250.36 638.584 248.643 638.553 247.424 637.554" fill="#000000" stroke="none"/>
  <path d="M 156.409 687.747 C 156.097 687.028 156.878 686.341 157.565 685.935 C 162.031 683.374 166.56 680.937 171.183 678.626 C 171.401 679.282 170.558 679.719 170.027 680.094 C 169.121 680.719 168.683 681.999 169.09 683.03 C 169.464 684.092 170.589 684.811 171.682 684.716 C 172.62 684.623 173.431 684.03 174.181 683.436 C 177.648 680.719 180.834 677.657 183.708 674.346 C 184.301 675.877 182.989 677.44 181.77 678.563 C 179.428 680.719 177.055 682.873 174.712 685.06 C 173.494 686.184 171.964 687.372 170.34 686.997 C 168.903 686.653 167.497 687.496 166.122 688.09 C 163.405 689.277 160.25 689.433 157.44 688.496 C 157.002 688.37 156.565 688.152 156.409 687.747 M 167.81 684.279 C 167.591 683.81 167.247 683.405 166.81 683.092 C 166.247 683.311 165.654 683.529 165.06 683.717 C 165.404 684.092 165.529 684.654 165.373 685.122 C 166.216 685.434 167.278 685.091 167.746 684.31" fill="#000000" stroke="none"/>
  <path d="M 171.37 617.376 C 177.491 615.534 184.363 616.439 189.766 619.781 C 183.083 618.064 175.867 617.813 169.402 620.188 C 162.905 622.592 157.315 627.902 155.628 634.587 C 154.753 638.022 154.91 641.583 155.003 645.143 C 155.378 659.854 154.535 674.628 153.692 689.339 C 153.629 690.62 152.817 692.368 151.63 691.838 C 151.881 674.69 152.255 657.574 152.848 640.427 C 152.941 637.49 153.067 634.492 154.098 631.744 C 155.378 628.402 157.939 625.747 160.687 623.467 C 163.874 620.812 167.434 618.563 171.37 617.376" fill="#000000" stroke="none"/>
  <path d="M 221.313 714.014 C 219.626 717.106 214.379 717.074 212.723 713.983 C 212.317 714.919 211.88 715.826 211.474 716.762 C 194.982 717.043 178.492 717.325 161.969 717.574 C 163.405 717.668 163.874 715.606 163.374 714.263 C 162.843 712.952 161.843 711.64 162.155 710.234 C 182.426 710.672 202.697 711.078 222.999 711.484 C 224.436 711.515 226.529 710.578 225.811 709.328 C 226.654 709.297 227.528 709.297 228.372 709.297 C 228.309 710.297 228.277 711.296 228.215 712.296 C 227.341 713.451 226.403 714.67 225.061 715.232 C 223.686 715.794 221.843 715.388 221.313 714.014 M 196.92 713.795 C 195.638 713.701 194.359 713.608 193.109 713.513 C 192.578 712.828 191.578 712.764 190.704 712.764 C 188.455 712.733 186.205 712.733 183.956 712.733 C 183.739 713.577 183.426 714.419 183.083 715.232 C 188.487 715.919 193.983 716.012 199.417 715.544 C 199.168 715.076 198.887 714.576 198.45 714.294 C 197.981 714.014 197.262 714.107 197.044 714.607 C 197.013 714.327 196.982 714.076 196.92 713.795 M 175.117 713.701 C 175.743 713.67 176.585 713.202 176.305 712.639 C 174.587 711.766 172.525 711.608 170.682 712.171 C 170.682 712.546 170.714 712.889 170.714 713.233 C 172.15 713.639 173.65 713.795 175.117 713.701 M 214.628 713.014 C 214.317 713.265 214.41 713.858 214.723 714.107 C 215.035 714.388 215.503 714.482 215.909 714.513 C 217.158 714.638 218.408 714.67 219.626 714.607 C 220.032 714.014 219.533 713.17 218.845 712.92 C 218.158 712.702 217.44 712.858 216.721 713.045 C 216.034 713.202 215.284 713.327 214.628 713.014 M 202.416 712.795 C 201.386 712.639 200.261 712.546 199.417 713.17 C 200.324 713.858 201.291 714.607 202.447 714.701 C 203.572 714.795 204.884 713.951 204.79 712.828 C 204.009 712.764 203.229 712.733 202.416 712.702 M 209.912 712.484 C 209.131 712.484 208.382 712.858 207.882 713.451 C 208.382 713.919 208.913 714.419 209.6 714.576 C 210.256 714.732 211.099 714.419 211.286 713.764 C 211.505 713.107 210.663 712.326 210.1 712.702 M 178.522 712.608 C 179.022 713.107 179.522 713.639 180.209 713.888 C 180.865 714.138 181.708 714.014 182.114 713.42 C 182.271 713.17 182.333 712.858 182.271 712.546 C 181.146 711.89 179.647 711.921 178.522 712.608 M 165.404 712.983 C 165.592 713.513 166.247 713.858 166.81 713.701 C 167.371 713.513 167.715 712.889 167.591 712.326 C 166.685 711.64 165.373 711.608 164.436 712.202 C 164.717 712.484 164.967 712.764 165.249 713.045 M 225.998 713.327 C 224.998 712.92 223.842 712.889 222.812 713.202 C 222.874 713.919 223.436 714.544 224.154 714.67 C 224.842 714.764 225.591 714.327 225.842 713.67" fill="#000000" stroke="none"/>
  <path d="M 431.671 678.063 C 432.141 679.156 432.609 680.218 433.077 681.312 C 432.328 681.811 431.547 682.311 430.798 682.78 C 432.265 683.997 434.014 684.779 435.889 685.091 C 434.858 685.434 433.858 685.997 433.077 686.716 C 437.357 687.621 440.636 691.962 440.386 696.335 C 438.732 693.555 437.107 690.807 435.452 688.027 C 435.108 691.244 436.482 694.617 439.012 696.679 C 441.229 698.522 441.198 701.864 441.448 704.738 C 441.698 707.61 443.134 711.078 446.039 711.203 C 460.063 711.766 474.118 711.702 488.173 711.047 C 492.796 710.827 497.419 710.827 502.042 711.016 C 503.073 711.078 504.54 711.858 503.947 712.733 C 483.27 712.92 462.593 713.139 441.916 713.357 C 434.014 694.243 426.393 675.034 419.053 655.701 C 420.741 655.762 422.302 656.949 422.865 658.511 C 422.271 658.511 421.677 658.917 421.49 659.51 C 423.894 659.917 425.206 662.447 426.143 664.695 C 427.675 668.381 429.174 672.067 430.673 675.752 C 429.828 674.971 428.986 674.191 428.143 673.41 C 428.298 675.502 428.955 677.564 430.079 679.313 C 430.61 678.907 431.141 678.469 431.671 678.063 M 423.145 662.072 C 424.051 665.258 425.363 668.319 427.05 671.192 C 427.174 671.41 427.518 671.505 427.736 671.379 C 427.05 667.944 425.457 664.695 423.145 662.072" fill="#000000" stroke="none"/>
  <path d="M 184.77 613.503 C 184.644 610.693 187.174 611.755 188.329 614.347 C 188.986 614.159 189.61 613.753 190.11 613.254 C 189.58 612.566 189.61 611.535 190.203 610.91 C 190.735 611.942 191.265 613.004 191.797 614.035 C 194.702 612.067 201.417 613.066 202.416 613.941 C 203.416 614.815 204.759 615.19 206.039 615.534 C 208.662 616.221 211.255 616.877 213.91 617.408 C 215.379 617.689 216.94 617.938 218.377 617.563 C 219.845 617.189 222.999 617.751 224.342 618.689 C 225.717 619.625 227.465 619.789 229.122 619.906 C 236.669 620.439 247.844 621.857 245.253 623.908 C 245.363 623.578 247.029 624.265 243.477 622.604 C 242.227 622.02 210.398 618.771 201.823 616.627 C 199.823 616.128 197.825 615.596 195.763 615.596 C 194.015 615.565 192.296 615.939 190.547 615.971 C 187.642 616.033 184.801 615.158 181.896 614.753 C 175.43 613.816 168.59 615.19 163.093 618.751 C 157.596 622.311 153.504 628.027 152.068 634.399 C 151.38 637.334 151.224 640.427 149.819 643.05 C 148.382 645.675 145.071 647.642 142.416 646.298 C 146.477 645.331 149.788 641.614 150.225 637.428 C 151.037 629.526 155.472 622.093 162 617.563 C 168.528 613.035 177.055 611.504 184.77 613.503" fill="#000000" stroke="none"/>
  <path d="M 146.352 693.025 C 150.131 693.337 153.91 693.681 157.689 693.992 C 156.908 695.366 158.346 697.147 159.907 697.335 C 161.468 697.522 162.969 696.71 164.342 695.899 C 168.402 693.524 172.494 691.151 176.585 688.776 C 174.368 691.619 171.995 695.18 173.213 698.615 C 174.057 701.083 176.523 702.582 178.803 703.862 C 182.177 705.768 185.519 707.674 188.892 709.579 C 186.112 709.297 183.426 708.204 181.24 706.454 C 178.803 709.016 173.744 707.892 172.62 704.519 C 172.088 702.926 169.746 702.77 168.372 703.707 C 166.965 704.612 166.185 706.206 165.123 707.517 C 164.061 708.829 162.375 709.954 160.782 709.391 C 165.31 704.707 168.903 699.115 171.245 693.056 C 166.841 696.023 162.218 698.677 157.408 700.958 C 156.253 701.489 155.066 702.051 153.785 702.082 C 150.537 702.177 147.695 699.053 144.509 699.708 C 144.572 704.332 145.508 708.923 147.32 713.202 C 144.54 712.452 141.354 713.983 140.199 716.575 C 135.67 709.734 134.138 700.989 136.107 693.025 C 138.793 696.835 139.824 701.801 138.887 706.362 C 138.419 708.547 141.042 710.546 140.542 712.733 C 141.448 713.045 142.479 712.265 142.76 711.359 C 143.041 710.422 142.822 709.422 142.604 708.486 C 138.387 690.151 136.919 671.317 135.42 652.577 C 135.358 651.827 135.326 651.046 135.639 650.359 C 135.919 649.735 136.482 649.266 136.795 648.642 C 137.075 648.017 136.919 647.048 136.232 646.923 C 135.95 647.267 135.639 647.611 135.358 647.954 C 135.326 639.334 135.786 650.496 135.786 641.874 C 137.13 655.243 138.043 648.829 139.418 662.228 C 139.542 663.478 139.762 664.852 140.76 665.571 C 141.448 666.07 142.323 666.101 143.135 666.164 C 145.539 666.257 147.913 666.382 150.287 666.507 C 150.475 669.88 150.475 673.253 150.349 676.626 C 150.287 678.844 149.819 681.468 147.788 682.343 C 145.789 683.186 143.447 681.562 142.634 679.532 C 141.823 677.502 142.011 675.253 142.011 673.067 C 141.979 670.88 141.635 668.505 140.011 667.037 C 138.731 666.726 138.137 668.6 138.262 669.911 C 138.449 672.566 138.981 675.222 139.793 677.752 C 140.512 679.937 141.51 682.187 143.416 683.467 C 145.321 684.747 148.319 684.623 149.537 682.686 C 149.943 684.217 150.349 685.747 150.755 687.277 C 149.225 688.027 147.413 687.683 145.758 687.934 C 144.071 688.183 142.259 689.682 142.822 691.275 C 143.29 692.588 144.977 692.9 146.352 693.025 M 152.598 696.617 C 149.788 695.242 146.789 694.336 143.696 693.992 C 143.135 695.46 143.29 697.178 144.103 698.522 C 144.758 697.553 145.383 696.586 146.039 695.617 C 146.882 695.804 147.757 695.992 148.632 696.179 C 148.413 697.023 148.881 697.928 149.537 698.491 C 150.225 699.053 151.067 699.334 151.881 699.615 C 152.411 699.771 152.973 699.928 153.473 699.739 C 154.004 699.553 154.316 698.834 153.91 698.46 C 154.129 698.24 154.504 698.272 154.66 698.522 C 154.815 698.74 154.722 699.115 154.473 699.24 C 155.223 699.458 156.065 698.709 155.94 697.959 C 155.409 697.491 155.191 696.648 155.472 695.992 C 154.66 695.835 153.848 695.648 153.036 695.46 C 153.036 695.899 152.879 696.305 152.598 696.617 M 178.929 707.423 C 179.49 707.235 179.552 706.392 179.21 705.893 C 178.866 705.424 178.272 705.206 177.71 704.955 C 175.649 704.05 173.837 702.613 172.494 700.833 C 172.181 700.958 172.276 701.427 172.432 701.707 C 173.837 704.269 176.398 705.986 178.929 707.423 M 143.384 685.248 C 142.978 684.747 142.416 684.404 141.791 684.31 C 141.354 685.122 141.198 686.059 141.354 686.965 C 142.011 687.153 142.76 687.277 143.322 686.903 C 143.884 686.528 143.978 685.497 143.353 685.248 M 137.669 700.989 C 137.418 700.208 137.169 699.427 136.919 698.615 C 136.356 700.489 136.513 702.582 137.387 704.362 C 138.325 703.613 138.043 702.145 137.669 700.989 M 169.933 698.365 C 169.277 699.178 168.808 700.146 168.528 701.146 C 170.183 700.989 171.464 699.146 170.995 697.584 C 170.527 697.366 169.933 697.866 170.058 698.334 M 141.729 695.398 C 141.51 694.524 141.104 693.712 140.542 693.056 C 140.667 694.461 141.011 695.835 141.604 697.116 C 141.948 696.648 141.948 695.929 141.574 695.492" fill="#000000" stroke="none"/>
  <path d="M 158.002 643.894 C 158.158 639.49 158.377 634.929 160.282 630.994 C 162.811 625.841 168.059 622.373 173.65 621.155 C 179.241 619.937 185.113 620.718 190.547 622.468 C 191.422 620.812 192.359 619.095 193.92 618.001 C 195.451 616.939 197.731 616.689 199.105 618.001 C 197.887 617.97 196.638 618.345 195.638 619.095 C 203.198 620.594 210.724 622.093 218.251 623.561 C 220.72 624.061 223.874 624.279 225.217 622.124 C 224.904 623.936 224.624 625.716 224.312 627.496 C 228.465 627.715 232.619 627.965 236.773 628.183 C 236.43 628.651 236.055 629.089 235.712 629.558 C 236.586 629.589 237.46 629.62 238.335 629.682 C 238.803 628.527 238.085 627.059 236.93 626.684 C 237.961 626.154 239.054 625.778 240.209 625.591 C 240.458 626.122 240.709 626.684 240.959 627.216 C 240.053 627.185 239.179 628.027 239.179 628.932 C 239.179 629.87 240.053 630.713 240.99 630.682 C 240.333 631.245 239.365 631.338 238.648 630.901 C 238.335 632.337 240.678 632.962 241.708 631.994 C 242.771 631.025 242.895 629.402 243.176 627.996 C 243.457 626.59 244.27 624.967 245.707 624.841 C 243.582 631.088 241.458 637.366 239.365 643.613 C 238.429 643.114 237.961 641.895 238.366 640.896 C 235.712 641.551 232.838 641.302 230.339 640.177 C 231.089 639.803 231.869 639.427 232.619 639.053 C 219.439 635.367 206.57 630.589 194.139 624.81 C 189.58 622.686 194.296 621.161 190.049 623.879 C 185.801 626.596 187.136 621.258 182.107 621.665 C 179.22 620.656 175.086 621.375 170.12 623.654 C 165.186 625.934 161.25 630.307 159.501 635.492 C 161.063 635.273 159.102 636.544 159.789 637.95 C 158.834 638.444 159.314 639.958 158.939 642.269 C 158.564 644.581 158.478 647.108 158.603 649.42 C 158.822 653.231 158.533 656.825 158.658 660.604 C 158.845 667.507 162.687 674.191 168.528 677.845 C 164.561 680.032 160.563 682.187 156.565 684.372 C 157.065 670.88 157.533 657.386 158.002 643.894 M 211.942 624.998 C 213.286 625.309 214.535 625.965 215.566 626.903 C 216.721 627.996 217.689 629.495 219.22 629.87 C 220.157 630.088 221.219 629.839 221.843 629.12 C 222.5 628.402 222.655 627.277 222.125 626.466 C 221.625 626.371 221.156 626.808 221 627.277 C 220.844 627.777 220.906 628.309 220.969 628.808 C 220.282 628.496 219.595 628.183 218.908 627.839 C 217.658 627.277 216.159 626.154 216.659 624.872 C 215.222 624.029 213.316 624.061 211.942 624.998 M 234.524 638.084 C 234.4 637.49 233.962 636.991 233.525 636.554 C 231.838 634.898 230.058 633.181 227.809 632.525 C 227.372 632.4 226.873 632.369 226.591 632.68 C 226.123 633.15 226.591 633.899 227.028 634.336 C 229.09 636.303 231.714 637.647 234.524 638.084 M 224.342 635.21 C 224.935 633.493 225.498 631.806 226.06 630.088 C 225.154 629.745 224.249 629.369 223.374 628.995 C 222.843 630.557 222.311 632.119 221.781 633.68 C 221.593 634.243 222.031 634.867 222.562 635.086 C 223.124 635.336 223.749 635.273 224.342 635.21 M 239.709 634.523 C 239.179 633.68 237.804 633.774 237.116 634.492 C 236.461 635.242 236.367 636.335 236.586 637.304 C 236.836 638.521 237.71 639.74 238.959 639.771 C 239.21 638.772 239.491 637.741 239.773 636.71 C 239.959 635.991 240.147 635.149 239.709 634.523 M 228.777 631.245 C 230.589 632.212 232.619 632.775 234.681 632.869 C 235.024 632.869 235.4 632.869 235.648 632.618 C 236.118 632.212 235.836 631.432 235.492 630.87 C 233.743 631.494 231.683 631.15 230.246 629.963 C 229.683 630.339 229.215 630.744 228.777 631.245 M 205.289 622.936 C 205.102 624.311 204.884 625.716 204.665 627.09 C 205.383 627.121 206.101 627.152 206.789 627.185 C 207.476 626.278 206.82 624.998 206.132 624.092 C 205.852 623.716 205.571 623.311 205.289 622.936 M 217.408 630.245 C 217.003 630.057 216.596 629.839 216.159 629.62 C 216.002 630.026 215.816 630.401 215.659 630.776 C 216.596 631.619 217.752 632.181 218.97 632.4 C 219.127 632.056 219.282 631.713 219.439 631.37 C 218.752 630.994 218.095 630.651 217.408 630.276 M 217.564 624.435 C 217.033 624.967 217.533 625.996 218.282 626.185 C 219.032 626.371 219.781 626.028 220.469 625.684 C 219.845 624.872 218.72 624.466 217.721 624.716 M 198.981 624.311 C 198.387 624.435 197.825 624.56 197.231 624.685 C 198.293 625.278 199.636 625.341 200.761 624.841 C 200.668 624.092 199.48 623.748 198.981 624.342 M 208.35 625.903 C 208.819 625.373 209.443 624.998 210.1 624.779 C 209.412 624.311 208.507 624.154 207.726 624.373 C 207.445 624.998 207.695 625.778 208.288 626.122" fill="#000000" stroke="none"/>
  <path d="M 357.46 635.18 C 385.29 634.992 413.088 634.804 440.916 634.587 C 453.973 634.492 467.403 634.492 479.522 639.334 C 477.773 634.086 468.653 636.585 465.279 632.181 C 474.306 631.9 483.301 631.619 492.297 631.338 C 493.765 631.276 495.326 631.245 496.67 631.869 C 497.637 632.337 498.449 633.118 499.449 633.525 C 500.449 633.962 501.822 633.805 502.292 632.837 C 501.855 634.742 499.637 636.055 497.762 635.523 C 497.325 638.49 501.729 640.646 503.822 638.553 C 503.884 639.397 503.947 640.24 503.978 641.083 C 500.761 640.865 498.263 645.174 500.074 647.861 C 501.698 648.11 503.166 649.11 503.978 650.485 C 499.699 652.264 494.327 650.891 491.422 647.299 C 490.392 646.05 489.641 644.55 488.33 643.582 C 486.643 642.333 484.363 642.238 482.239 642.207 C 461.5 641.832 440.73 641.739 419.96 641.926 C 419.585 645.143 420.397 648.516 422.271 651.203 C 422.177 649.11 422.083 647.017 421.989 644.925 C 430.485 663.321 439.012 681.749 447.507 700.146 C 448.039 701.27 448.6 702.489 449.694 703.082 C 450.569 703.581 451.631 703.581 452.598 703.613 C 469.777 703.707 486.924 703.801 504.072 703.925 C 503.634 706.83 499.668 707.33 496.732 707.08 C 480.396 705.768 463.999 705.831 447.695 707.299 C 440.574 688.652 432.109 670.537 422.395 653.077 C 421.146 653.701 419.616 653.669 418.429 652.983 C 419.459 652.545 420.49 652.139 421.521 651.734 C 419.179 650.609 416.618 649.984 414.025 649.829 C 415.368 649.453 416.68 649.079 418.022 648.735 C 397.534 648.735 377.043 648.735 356.555 648.735 C 355.212 648.735 353.713 648.642 352.9 647.611 C 351.213 645.487 353.931 641.395 351.621 639.958 C 350.839 641.645 350.339 643.457 350.152 645.299 C 338.876 645.112 327.633 645.206 316.357 645.611 C 316.326 643.269 316.294 640.927 316.264 638.584 C 315.388 639.146 314.514 639.74 313.64 640.333 C 313.139 638.741 312.984 637.084 313.139 635.43 C 314.171 635.086 315.388 635.43 316.107 636.242 C 316.638 634.587 317.137 632.9 317.669 631.245 C 327.602 631.338 337.565 631.463 347.496 631.556 C 349.403 631.587 351.652 631.775 352.619 633.462 C 353.494 635.024 355.648 635.18 357.46 635.18 M 385.102 638.647 C 384.322 641.083 381.979 642.926 379.418 643.05 C 376.888 643.176 374.358 641.614 373.327 639.271 C 374.202 639.084 374.701 637.897 374.202 637.148 C 371.078 637.148 367.955 637.148 364.831 637.148 C 364.613 637.772 364.394 638.396 364.176 639.022 C 363.957 638.396 363.77 637.772 363.551 637.148 C 360.99 637.022 358.398 637.148 355.868 637.523 C 355.43 637.585 354.993 637.678 354.712 638.022 C 354.462 638.365 354.462 638.834 354.493 639.271 C 354.681 641.302 354.836 643.331 354.993 645.393 C 355.025 645.768 355.087 646.236 355.368 646.518 C 355.681 646.799 356.149 646.831 356.586 646.831 C 375.919 646.799 395.285 646.799 414.618 646.799 C 416.055 646.799 417.647 646.705 418.554 645.643 C 417.117 644.799 417.179 642.488 418.304 641.27 C 419.459 640.052 421.24 639.677 422.926 639.615 C 424.613 639.552 426.3 639.677 427.924 639.209 C 427.924 638.553 428.174 637.897 428.611 637.397 C 429.017 638.022 429.391 638.678 429.797 639.302 C 435.795 639.366 441.761 639.397 447.757 639.459 C 447.382 638.647 447.039 637.803 446.664 636.991 C 427.111 637.084 407.591 637.21 388.069 637.334 C 386.914 637.334 385.445 637.554 385.102 638.647 M 350.246 636.397 C 350.37 635.492 350.277 634.399 349.496 633.931 C 349.09 633.711 348.621 633.711 348.153 633.711 C 344.03 633.711 339.907 633.711 335.785 633.711 C 335.472 634.898 335.847 636.211 336.783 637.022 C 336.128 637.865 335.441 638.709 334.785 639.583 C 333.973 640.177 332.754 639.615 332.099 638.834 C 331.443 638.022 331.099 637.022 330.381 636.273 C 331.474 635.929 332.286 634.867 332.379 633.711 C 330.818 633.711 329.225 633.711 327.664 633.711 C 328.07 634.148 328.007 634.929 327.507 635.305 C 327.445 634.336 326.351 633.742 325.384 633.742 C 324.415 633.711 323.416 633.993 322.479 633.837 C 320.823 633.587 319.043 634.461 318.293 635.96 C 317.543 637.428 317.856 639.397 319.043 640.583 C 318.106 640.989 318.2 642.644 319.168 642.988 C 319.512 643.082 319.856 643.082 320.167 643.05 C 322.073 642.926 323.947 642.801 325.821 642.675 C 326.102 643.05 326.664 643.082 327.164 643.082 C 330.662 643.082 334.16 643.082 337.659 643.082 C 337.627 642.769 337.439 642.457 337.189 642.3 C 337.752 642.02 338.346 641.77 338.908 641.519 C 339.032 641.863 338.97 642.238 338.814 642.551 C 339.095 643.3 340.125 643.362 340.875 643.176 C 341.656 642.988 342.5 642.675 343.187 643.05 C 344.311 643.675 345.811 643.426 346.685 642.488 C 346.873 643.019 347.653 643.269 348.121 642.926 C 348.589 642.582 348.589 641.77 348.121 641.427 C 349.246 639.958 349.996 638.209 350.246 636.397 M 454.598 639.895 C 455.191 639.958 456.066 639.677 455.847 639.146 C 455.379 639.084 455.004 638.709 454.909 638.24 C 455.472 638.022 455.94 637.647 456.315 637.179 C 456.847 637.397 457.096 637.991 457.315 638.521 C 457.502 639.053 457.752 639.615 458.252 639.865 C 458.783 640.083 459.564 639.552 459.283 639.053 C 459.033 638.553 459.719 638.022 460.282 638.178 C 460.813 638.304 461.156 638.772 461.562 639.146 C 463.031 640.521 465.529 640.521 466.997 639.146 C 467.028 638.335 466.435 637.616 465.686 637.242 C 464.968 636.866 464.123 636.804 463.311 636.772 C 459.064 636.492 454.816 636.461 450.569 636.679 C 450.474 637.273 450.569 637.897 450.818 638.428 C 450.474 638.272 450.163 638.834 450.381 639.146 C 450.6 639.459 451.006 639.521 451.381 639.583 C 452.473 639.677 453.536 639.803 454.598 639.895 M 381.886 637.772 C 380.449 637.772 379.012 637.803 377.575 637.803 C 377.012 637.803 376.389 637.834 376.045 638.24 C 375.608 638.741 375.826 639.552 376.294 639.989 C 376.794 640.427 377.482 640.552 378.106 640.614 C 379.136 640.676 380.199 640.614 381.199 640.427 C 381.853 640.302 382.51 640.083 382.915 639.583 C 383.291 639.084 383.291 638.209 382.698 637.897 C 382.447 637.772 382.166 637.772 381.886 637.772 M 496.95 644.925 C 495.451 645.174 493.89 645.049 492.453 644.55 C 492.578 645.892 493.765 646.861 494.858 647.642 C 495.513 648.141 496.232 648.642 497.045 648.86 C 497.857 649.079 498.793 648.891 499.325 648.236 C 498.637 647.798 498.418 646.736 498.918 646.08 C 498.544 645.58 497.731 645.487 497.232 645.861 C 497.138 645.549 497.045 645.236 496.95 644.925 M 484.176 638.022 C 484.8 637.678 484.551 636.741 484.114 636.242 C 483.458 635.43 482.521 634.898 481.52 634.68 C 481.365 635.929 482.021 637.242 483.115 637.865 C 483.458 638.053 483.864 638.209 484.176 638.022 M 334.597 635.773 C 334.472 635.398 334.348 635.055 334.254 634.68 C 333.41 634.898 332.786 635.743 332.786 636.585 C 332.754 637.459 333.379 638.272 334.191 638.521 C 334.661 637.678 334.847 636.679 334.661 635.743 M 352.775 638.24 C 353.306 637.397 352.713 636.148 351.745 635.96 C 351.213 636.303 350.964 637.084 351.245 637.647 C 351.495 638.24 352.244 638.584 352.869 638.396 M 449.851 705.549 C 449.881 705.3 449.912 705.018 449.943 704.769 C 449.225 704.487 448.538 704.144 447.913 703.676 C 447.476 704.769 448.726 706.08 449.851 705.736 M 490.423 635.711 C 490.579 634.929 489.985 634.086 489.173 633.962 C 489.079 634.836 489.61 635.743 490.454 636.022" fill="#000000" stroke="none"/>
</svg>